<svg xmlns="http://www.w3.org/2000/svg" version="1.1" viewBox="438.272 172.032 661.5039999999999 665.6" style="max-height: 500px" width="661.5039999999999" height="665.6">
<path transform="translate(0,0)" fill="#FEFCF8" d="M0 0 C506.88 0 1013.76 0 1536 0 C1536 337.92 1536 675.84 1536 1024 C1029.12 1024 522.24 1024 0 1024 C0 686.08 0 348.16 0 0 Z"/>
<path transform="translate(775.30078125,175.02734375)" fill="#FDFBF8" d="M0 0 C5.1643111 3.31139664 9.62125437 7.48218913 14.1171875 11.6328125 C16.6434488 13.92211737 19.23448943 16.08122665 21.88671875 18.22265625 C28.32633868 23.4378414 34.55377278 28.88597377 40.80273438 34.32617188 C43.77777064 36.90903034 46.76865935 39.47322539 49.76171875 42.03515625 C50.33510986 42.52604736 50.90850098 43.01693848 51.49926758 43.52270508 C52.65452393 44.51150828 53.80987851 45.50019674 54.96533203 46.48876953 C57.29392036 48.48161096 59.62092137 50.47630043 61.94775391 52.47119141 C63.11260931 53.46977808 64.27764754 54.46815153 65.44287109 55.46630859 C68.40010397 57.99977902 71.35468933 60.53623249 74.3046875 63.078125 C79.63757197 67.66872178 84.9810782 72.23027023 90.44921875 76.66015625 C94.82429622 80.21010946 99.00471067 83.92829446 103.16796875 87.72265625 C105.78766685 90.05127678 108.47437185 92.26828572 111.19921875 94.47265625 C115.66198088 98.08298067 119.92641408 101.85693554 124.16796875 105.72265625 C126.78766685 108.05127678 129.47437185 110.26828572 132.19921875 112.47265625 C135.79399525 115.38079005 139.28182503 118.35806957 142.69921875 121.47265625 C146.01911361 124.49548046 149.39685987 127.39777786 152.88671875 130.22265625 C159.32633868 135.4378414 165.55377278 140.88597377 171.80273438 146.32617188 C174.77777064 148.90903034 177.76865935 151.47322539 180.76171875 154.03515625 C181.33510986 154.52604736 181.90850098 155.01693848 182.49926758 155.52270508 C183.65452393 156.51150828 184.80987851 157.50019674 185.96533203 158.48876953 C188.87815921 160.98161149 191.78855936 163.47728391 194.69921875 165.97265625 C195.86587393 166.97266965 197.03254059 167.97266966 198.19921875 168.97265625 C219.19921875 186.97265625 219.19921875 186.97265625 220.94995117 188.47338867 C222.11403852 189.4711082 223.27826331 190.46866739 224.44262695 191.46606445 C227.39991762 193.99964368 230.35460244 196.53615762 233.3046875 199.078125 C238.63757197 203.66872178 243.9810782 208.23027023 249.44921875 212.66015625 C253.82429622 216.21010946 258.00471067 219.92829446 262.16796875 223.72265625 C264.78766685 226.05127678 267.47437185 228.26828572 270.19921875 230.47265625 C273.79399525 233.38079005 277.28182503 236.35806957 280.69921875 239.47265625 C284.01911361 242.49548046 287.39685987 245.39777786 290.88671875 248.22265625 C297.38811991 253.48833009 303.69105559 258.97230778 309.98681641 264.48046875 C311.51216622 265.80965866 313.0483231 267.12642343 314.5859375 268.44140625 C315.38644531 269.13234375 316.18695312 269.82328125 317.01171875 270.53515625 C317.68847656 271.11394531 318.36523438 271.69273437 319.0625 272.2890625 C322.65963994 275.98922315 322.95021866 279.2589817 322.95648766 284.32021904 C322.96293655 285.63423978 322.96938544 286.94826051 322.97602975 288.30210006 C322.97308735 289.76397164 322.9699519 291.22584283 322.96664429 292.68771362 C322.97037958 294.23781688 322.97498061 295.78791826 322.98037493 297.33801663 C322.9926353 301.60440883 322.9923409 305.87072279 322.98998618 310.13712859 C322.98957878 314.73572871 323.00060976 319.33430348 323.01010132 323.93289185 C323.02672872 332.94479292 323.03221164 341.95666784 323.03332607 350.96858297 C323.03427569 358.29204866 323.03838162 365.6155057 323.04472733 372.93896866 C323.06234415 393.69185715 323.07156546 414.44472495 323.07006638 435.19762097 C323.06994651 436.87652955 323.06994651 436.87652955 323.06982422 438.58935547 C323.06974246 439.70999075 323.0696607 440.83062604 323.06957646 441.98521997 C323.06876334 460.15188723 323.08790641 478.31847163 323.11610095 496.48511492 C323.1448072 515.12822103 323.15864251 533.7712867 323.1569134 552.41441548 C323.15624874 562.88526922 323.16177444 573.35603609 323.1832695 583.82686996 C323.20145156 592.74113266 323.20585314 601.65526909 323.19225065 610.56954227 C323.18570605 615.11915044 323.18565744 619.66851617 323.20295715 624.2181015 C323.21862717 628.38185637 323.21588684 632.54517534 323.19838889 636.70891918 C323.19530555 638.21630073 323.19900138 639.72371433 323.21010904 641.23105811 C323.22419885 643.27846531 323.21127101 645.32600525 323.19699669 647.37341118 C323.19764879 649.08003939 323.19764879 649.08003939 323.19831407 650.82114494 C322.43212289 655.65921909 320.23522306 658.61012585 316.61229461 661.82388645 C312.1406671 663.5872702 307.85487754 663.3846483 303.09000492 663.35297298 C302.00378575 663.3576329 300.91756657 663.36229282 299.79843166 663.36709395 C296.1333276 663.37911083 292.46858967 663.36962251 288.80348206 663.3603363 C286.15943445 663.36450629 283.51541329 663.36985958 280.87137359 663.37665612 C275.10965881 663.38904646 269.34802543 663.39022529 263.5863018 663.38410568 C255.01849955 663.37502994 246.45077283 663.38303428 237.88297638 663.39439692 C222.58225989 663.41408703 207.28157724 663.41640677 191.9808511 663.41120172 C178.59049521 663.40664866 165.20015274 663.40723858 151.80979729 663.41304207 C150.0152551 663.41379893 148.22071291 663.41455491 146.42617072 663.41531001 C143.72212588 663.41645518 141.01808104 663.41760505 138.3140362 663.41876926 C113.16647955 663.42947801 88.01892738 663.43419564 62.87136936 663.4262991 C61.92293733 663.42600192 60.97450529 663.42570475 59.99733289 663.42539857 C52.2948586 663.42294951 44.59238437 663.42033799 36.88991014 663.41771444 C6.84056666 663.40761073 -23.20872095 663.41596823 -53.25805664 663.43920898 C-87.00187139 663.46526476 -120.7456525 663.47813405 -154.48947769 663.47102123 C-158.0854998 663.47030515 -161.68152191 663.46963076 -165.27754402 663.46898079 C-166.60573765 663.46872608 -166.60573765 663.46872608 -167.96076347 663.46846622 C-181.34340193 663.46616054 -194.72600921 663.47415299 -208.10864067 663.48727226 C-223.3231771 663.50216059 -238.53764032 663.50305747 -253.75217514 663.48520135 C-262.2715451 663.47561517 -270.79074448 663.47712027 -279.31010316 663.49443604 C-284.99636427 663.50488951 -290.68249485 663.50087621 -296.36874301 663.484956 C-299.61157586 663.47628571 -302.85400504 663.47617882 -306.09683328 663.48922532 C-309.58678366 663.50227294 -313.07581648 663.49092027 -316.56572628 663.4732275 C-317.57692039 663.48287801 -318.5881145 663.49252852 -319.62995085 663.50247148 C-325.34217461 663.44260291 -328.89504581 662.97635871 -333.30078125 658.97265625 C-336.7979237 654.73463746 -337.8010095 651.87059406 -337.80414581 646.41302586 C-337.8145768 645.10260651 -337.82500779 643.79218717 -337.83575487 642.44205815 C-337.82710731 640.99461877 -337.81808071 639.54718162 -337.80871582 638.0997467 C-337.81332557 636.5568759 -337.81967899 635.01400948 -337.8276248 633.47115225 C-337.84433137 629.23391447 -337.83606579 624.99703681 -337.82367992 620.75979769 C-337.81463709 616.18914952 -337.8285954 611.61856368 -337.83959961 607.04792786 C-337.85739804 598.09474828 -337.85353883 589.14170273 -337.84194905 580.18851788 C-337.83291964 572.91229801 -337.83168859 565.63611575 -337.83604431 558.35989189 C-337.83665724 557.32474079 -337.83727018 556.28958968 -337.83790168 555.22307036 C-337.83918057 553.12024168 -337.84047742 551.017413 -337.84179205 548.91458433 C-337.85320187 529.19002223 -337.84007812 509.46553446 -337.81859058 489.74098455 C-337.80072189 472.81434634 -337.80382106 455.88781787 -337.82226562 438.96118164 C-337.84366978 419.30929569 -337.85210041 399.65747492 -337.83981657 380.00557894 C-337.83854236 377.91013142 -337.83728488 375.8146839 -337.83604431 373.71923637 C-337.83542721 372.68821405 -337.83481011 371.65719172 -337.83417431 370.59492629 C-337.83071985 363.32748503 -337.83655188 356.06008509 -337.84596252 348.79265022 C-337.85717894 339.93590906 -337.85415007 331.0793097 -337.83283955 322.22258479 C-337.82232393 317.70322684 -337.81821598 313.18410537 -337.83143616 308.66474915 C-337.84335548 304.52752778 -337.83680527 300.39076208 -337.81552595 296.25358205 C-337.81105788 294.75701607 -337.81333081 293.26041159 -337.8230291 291.76387037 C-337.88027688 282.19598409 -337.59226566 276.52149062 -330.890625 269.41796875 C-330.01535156 268.65226562 -329.14007813 267.8865625 -328.23828125 267.09765625 C-326.77455078 265.81181641 -326.77455078 265.81181641 -325.28125 264.5 C-321.66148264 261.43055114 -317.9961855 258.42401061 -314.3046875 255.44140625 C-308.83775655 250.94842789 -303.53402334 246.26519562 -298.19726562 241.61914062 C-293.50293604 237.543631 -288.77179384 233.51081778 -284.04785156 229.46972656 C-282.26242501 227.93978866 -280.4804198 226.40594824 -278.69921875 224.87109375 C-273.36528061 220.2788849 -268.02035912 215.71620668 -262.55078125 211.28515625 C-258.17570378 207.73520304 -253.99528933 204.01701804 -249.83203125 200.22265625 C-246.32278639 197.10332749 -242.66916002 194.17516492 -239.01953125 191.22265625 C-236.37930396 189.03764056 -233.83348405 186.78094234 -231.30078125 184.47265625 C-227.00086334 180.55374373 -222.54158578 176.88094756 -218.01953125 173.22265625 C-215.37930396 171.03764056 -212.83348405 168.78094234 -210.30078125 166.47265625 C-206.98088639 163.44983204 -203.60314013 160.54753464 -200.11328125 157.72265625 C-193.67366132 152.5074711 -187.44622722 147.05933873 -181.19726562 141.61914062 C-178.22222936 139.03628216 -175.23134065 136.47208711 -172.23828125 133.91015625 C-171.66489014 133.41926514 -171.09149902 132.92837402 -170.50073242 132.42260742 C-169.34547607 131.43380422 -168.19012149 130.44511576 -167.03466797 129.45654297 C-164.70625403 127.46385078 -162.37943836 125.46929763 -160.05273438 123.47460938 C-158.30356895 121.97504615 -156.55412854 120.47580416 -154.8046875 118.9765625 C-152.45736599 116.96466623 -150.11111708 114.95152867 -147.765625 112.9375 C-141.59418318 107.63989065 -135.40676584 102.36249626 -129.19287109 97.11474609 C-123.45909361 92.26868983 -117.76254972 87.37951844 -112.06689453 82.48876953 C-108.56583933 79.48330191 -105.0618978 76.4811981 -101.55761719 73.47949219 C-98.60026873 70.94580417 -95.64548446 68.40922975 -92.6953125 65.8671875 C-87.36242803 61.27659072 -82.0189218 56.71504227 -76.55078125 52.28515625 C-72.17570378 48.73520304 -67.99528933 45.01701804 -63.83203125 41.22265625 C-60.32278639 38.10332749 -56.66916002 35.17516492 -53.01953125 32.22265625 C-50.37930396 30.03764056 -47.83348405 27.78094234 -45.30078125 25.47265625 C-41.06717966 21.61907874 -36.69900585 17.97939535 -32.24609375 14.3828125 C-30.09276461 12.62073812 -27.96657151 10.84252688 -25.85546875 9.03125 C-25.27450439 8.53351074 -24.69354004 8.03577148 -24.0949707 7.52294922 C-22.96562274 6.55266211 -21.8390162 5.57917227 -20.71557617 4.60205078 C-14.48972435 -0.73827328 -8.04616845 -3.59277131 0 0 Z"/>
<path transform="translate(900,368)" fill="#181718" d="M0 0 C18.13960054 7.99233528 31.17208123 43.96966526 37.93457031 61.18408203 C42.36382228 72.89054222 45.8820022 84.82006445 48.75 97 C48.93667236 97.77996338 49.12334473 98.55992676 49.31567383 99.36352539 C53.35463552 117.55608252 54.54670108 135.72662155 54.4375 154.3125 C54.43512329 155.38306641 54.43274658 156.45363281 54.43029785 157.55664062 C54.37528029 173.41116384 53.57845351 188.50401826 50 204 C49.70394745 205.48090079 49.41209571 206.96264925 49.125 208.4453125 C41.83244602 244.41416438 23.859123 277.88699175 -0.9375 304.75 C-2.75057094 306.72789558 -4.47039014 308.75196817 -6.1875 310.8125 C-19.88056238 326.41695095 -37.13568362 339.52876934 -55 350 C-55.67659668 350.39783691 -56.35319336 350.79567383 -57.05029297 351.20556641 C-103.23999368 377.91077798 -162.85652023 384.40544921 -214.32519531 370.98046875 C-240.03479593 363.79139164 -264.64279865 352.03559679 -286 336 C-286.91652344 335.31421875 -287.83304688 334.6284375 -288.77734375 333.921875 C-295.52896343 328.6741706 -301.80066896 322.88020437 -308 317 C-308.50321777 316.52546387 -309.00643555 316.05092773 -309.52490234 315.56201172 C-317.52256146 307.97079523 -324.42015156 299.83802128 -331 291 C-331.64582031 290.14535156 -331.64582031 290.14535156 -332.3046875 289.2734375 C-337.30546831 282.63603752 -341.88783003 275.8134961 -346.0625 268.625 C-346.63605225 267.66231201 -346.63605225 267.66231201 -347.22119141 266.68017578 C-349.62240225 262.41221359 -351.85454775 257.99331082 -351 253 C-347.31944592 246.63734002 -341.10572903 242.64701817 -335.0625 238.75 C-333.36521936 237.62274946 -331.66993668 236.49248543 -329.9765625 235.359375 C-329.13641602 234.79798828 -328.29626953 234.23660156 -327.43066406 233.65820312 C-323.8486147 231.214523 -320.38723664 228.62584094 -316.9375 226 C-311.40654209 221.798905 -305.82805771 217.67794916 -300.1875 213.625 C-293.9272487 209.12458014 -287.70013288 204.58289986 -281.5 200 C-273.12659541 193.81397213 -264.70066891 187.70401655 -256.25146484 181.62207031 C-253.95365004 179.96660712 -251.65811124 178.30803543 -249.36328125 176.6484375 C-236.71342609 167.50071569 -236.71342609 167.50071569 -230.73242188 163.24951172 C-223.86772051 158.36995353 -217.0816164 153.38931787 -210.30883789 148.38305664 C-204.89741891 144.38692356 -199.46002297 140.42941653 -194 136.5 C-187.80341871 132.03984573 -181.64016025 127.53750831 -175.5 123 C-168.6229644 117.91794922 -161.70966917 112.88997203 -154.76953125 107.89453125 C-149.31916162 103.96607984 -143.90325984 99.99294732 -138.5 96 C-131.62591183 90.92012734 -124.7158799 85.89387885 -117.77832031 80.90112305 C-112.24022648 76.9099388 -106.73950175 72.87019651 -101.25 68.8125 C-94.73140208 63.99594759 -88.17551521 59.23976924 -81.5703125 54.54296875 C-71.14270602 47.12615006 -60.79268143 39.60272852 -50.5 32 C-42.85010051 26.35072317 -35.17597705 20.73759255 -27.4453125 15.19921875 C-24.37683352 13.0007534 -21.33515373 10.77007036 -18.3046875 8.51953125 C-16.7866424 7.40860261 -15.26841958 6.29791676 -13.75 5.1875 C-13.05890137 4.66526855 -12.36780273 4.14303711 -11.65576172 3.60498047 C-7.70123416 0.74055157 -5.05936022 -0.91543673 0 0 Z"/>
<path transform="translate(775.30078125,175.02734375)" fill="#181717" d="M0 0 C5.1643111 3.31139664 9.62125437 7.48218913 14.1171875 11.6328125 C16.6434488 13.92211737 19.23448943 16.08122665 21.88671875 18.22265625 C28.32633868 23.4378414 34.55377278 28.88597377 40.80273438 34.32617188 C43.77777064 36.90903034 46.76865935 39.47322539 49.76171875 42.03515625 C50.33510986 42.52604736 50.90850098 43.01693848 51.49926758 43.52270508 C52.65452393 44.51150828 53.80987851 45.50019674 54.96533203 46.48876953 C57.29392036 48.48161096 59.62092137 50.47630043 61.94775391 52.47119141 C63.11260931 53.46977808 64.27764754 54.46815153 65.44287109 55.46630859 C68.40010397 57.99977902 71.35468933 60.53623249 74.3046875 63.078125 C79.63757197 67.66872178 84.9810782 72.23027023 90.44921875 76.66015625 C94.82429622 80.21010946 99.00471067 83.92829446 103.16796875 87.72265625 C105.78766685 90.05127678 108.47437185 92.26828572 111.19921875 94.47265625 C115.66198088 98.08298067 119.92641408 101.85693554 124.16796875 105.72265625 C126.78766685 108.05127678 129.47437185 110.26828572 132.19921875 112.47265625 C135.79399525 115.38079005 139.28182503 118.35806957 142.69921875 121.47265625 C146.01911361 124.49548046 149.39685987 127.39777786 152.88671875 130.22265625 C159.32633868 135.4378414 165.55377278 140.88597377 171.80273438 146.32617188 C174.77777064 148.90903034 177.76865935 151.47322539 180.76171875 154.03515625 C181.33510986 154.52604736 181.90850098 155.01693848 182.49926758 155.52270508 C183.65452393 156.51150828 184.80987851 157.50019674 185.96533203 158.48876953 C188.87815921 160.98161149 191.78855936 163.47728391 194.69921875 165.97265625 C195.86587393 166.97266965 197.03254059 167.97266966 198.19921875 168.97265625 C219.19921875 186.97265625 219.19921875 186.97265625 220.94995117 188.47338867 C222.11403852 189.4711082 223.27826331 190.46866739 224.44262695 191.46606445 C227.39991762 193.99964368 230.35460244 196.53615762 233.3046875 199.078125 C238.63757197 203.66872178 243.9810782 208.23027023 249.44921875 212.66015625 C253.82429622 216.21010946 258.00471067 219.92829446 262.16796875 223.72265625 C264.78766685 226.05127678 267.47437185 228.26828572 270.19921875 230.47265625 C273.79399525 233.38079005 277.28182503 236.35806957 280.69921875 239.47265625 C284.01911361 242.49548046 287.39685987 245.39777786 290.88671875 248.22265625 C297.38811991 253.48833009 303.69105559 258.97230778 309.98681641 264.48046875 C311.51216622 265.80965866 313.0483231 267.12642343 314.5859375 268.44140625 C315.38644531 269.13234375 316.18695312 269.82328125 317.01171875 270.53515625 C317.68847656 271.11394531 318.36523438 271.69273437 319.0625 272.2890625 C322.65963994 275.98922315 322.95021866 279.2589817 322.95648766 284.32021904 C322.96293655 285.63423978 322.96938544 286.94826051 322.97602975 288.30210006 C322.97308735 289.76397164 322.9699519 291.22584283 322.96664429 292.68771362 C322.97037958 294.23781688 322.97498061 295.78791826 322.98037493 297.33801663 C322.9926353 301.60440883 322.9923409 305.87072279 322.98998618 310.13712859 C322.98957878 314.73572871 323.00060976 319.33430348 323.01010132 323.93289185 C323.02672872 332.94479292 323.03221164 341.95666784 323.03332607 350.96858297 C323.03427569 358.29204866 323.03838162 365.6155057 323.04472733 372.93896866 C323.06234415 393.69185715 323.07156546 414.44472495 323.07006638 435.19762097 C323.06994651 436.87652955 323.06994651 436.87652955 323.06982422 438.58935547 C323.06974246 439.70999075 323.0696607 440.83062604 323.06957646 441.98521997 C323.06876334 460.15188723 323.08790641 478.31847163 323.11610095 496.48511492 C323.1448072 515.12822103 323.15864251 533.7712867 323.1569134 552.41441548 C323.15624874 562.88526922 323.16177444 573.35603609 323.1832695 583.82686996 C323.20145156 592.74113266 323.20585314 601.65526909 323.19225065 610.56954227 C323.18570605 615.11915044 323.18565744 619.66851617 323.20295715 624.2181015 C323.21862717 628.38185637 323.21588684 632.54517534 323.19838889 636.70891918 C323.19530555 638.21630073 323.19900138 639.72371433 323.21010904 641.23105811 C323.22419885 643.27846531 323.21127101 645.32600525 323.19699669 647.37341118 C323.19764879 649.08003939 323.19764879 649.08003939 323.19831407 650.82114494 C322.43212289 655.65921909 320.23522306 658.61012585 316.61229461 661.82388645 C312.1406671 663.5872702 307.85487754 663.3846483 303.09000492 663.35297298 C302.00378575 663.3576329 300.91756657 663.36229282 299.79843166 663.36709395 C296.1333276 663.37911083 292.46858967 663.36962251 288.80348206 663.3603363 C286.15943445 663.36450629 283.51541329 663.36985958 280.87137359 663.37665612 C275.10965881 663.38904646 269.34802543 663.39022529 263.5863018 663.38410568 C255.01849955 663.37502994 246.45077283 663.38303428 237.88297638 663.39439692 C222.58225989 663.41408703 207.28157724 663.41640677 191.9808511 663.41120172 C178.59049521 663.40664866 165.20015274 663.40723858 151.80979729 663.41304207 C150.0152551 663.41379893 148.22071291 663.41455491 146.42617072 663.41531001 C143.72212588 663.41645518 141.01808104 663.41760505 138.3140362 663.41876926 C113.16647955 663.42947801 88.01892738 663.43419564 62.87136936 663.4262991 C61.92293733 663.42600192 60.97450529 663.42570475 59.99733289 663.42539857 C52.2948586 663.42294951 44.59238437 663.42033799 36.88991014 663.41771444 C6.84056666 663.40761073 -23.20872095 663.41596823 -53.25805664 663.43920898 C-87.00187139 663.46526476 -120.7456525 663.47813405 -154.48947769 663.47102123 C-158.0854998 663.47030515 -161.68152191 663.46963076 -165.27754402 663.46898079 C-166.60573765 663.46872608 -166.60573765 663.46872608 -167.96076347 663.46846622 C-181.34340193 663.46616054 -194.72600921 663.47415299 -208.10864067 663.48727226 C-223.3231771 663.50216059 -238.53764032 663.50305747 -253.75217514 663.48520135 C-262.2715451 663.47561517 -270.79074448 663.47712027 -279.31010316 663.49443604 C-284.99636427 663.50488951 -290.68249485 663.50087621 -296.36874301 663.484956 C-299.61157586 663.47628571 -302.85400504 663.47617882 -306.09683328 663.48922532 C-309.58678366 663.50227294 -313.07581648 663.49092027 -316.56572628 663.4732275 C-317.57692039 663.48287801 -318.5881145 663.49252852 -319.62995085 663.50247148 C-325.34217461 663.44260291 -328.89504581 662.97635871 -333.30078125 658.97265625 C-336.7979237 654.73463746 -337.8010095 651.87059406 -337.80414581 646.41302586 C-337.8145768 645.10260651 -337.82500779 643.79218717 -337.83575487 642.44205815 C-337.82710731 640.99461877 -337.81808071 639.54718162 -337.80871582 638.0997467 C-337.81332557 636.5568759 -337.81967899 635.01400948 -337.8276248 633.47115225 C-337.84433137 629.23391447 -337.83606579 624.99703681 -337.82367992 620.75979769 C-337.81463709 616.18914952 -337.8285954 611.61856368 -337.83959961 607.04792786 C-337.85739804 598.09474828 -337.85353883 589.14170273 -337.84194905 580.18851788 C-337.83291964 572.91229801 -337.83168859 565.63611575 -337.83604431 558.35989189 C-337.83665724 557.32474079 -337.83727018 556.28958968 -337.83790168 555.22307036 C-337.83918057 553.12024168 -337.84047742 551.017413 -337.84179205 548.91458433 C-337.85320187 529.19002223 -337.84007812 509.46553446 -337.81859058 489.74098455 C-337.80072189 472.81434634 -337.80382106 455.88781787 -337.82226562 438.96118164 C-337.84366978 419.30929569 -337.85210041 399.65747492 -337.83981657 380.00557894 C-337.83854236 377.91013142 -337.83728488 375.8146839 -337.83604431 373.71923637 C-337.83542721 372.68821405 -337.83481011 371.65719172 -337.83417431 370.59492629 C-337.83071985 363.32748503 -337.83655188 356.06008509 -337.84596252 348.79265022 C-337.85717894 339.93590906 -337.85415007 331.0793097 -337.83283955 322.22258479 C-337.82232393 317.70322684 -337.81821598 313.18410537 -337.83143616 308.66474915 C-337.84335548 304.52752778 -337.83680527 300.39076208 -337.81552595 296.25358205 C-337.81105788 294.75701607 -337.81333081 293.26041159 -337.8230291 291.76387037 C-337.88027688 282.19598409 -337.59226566 276.52149062 -330.890625 269.41796875 C-330.01535156 268.65226562 -329.14007813 267.8865625 -328.23828125 267.09765625 C-326.77455078 265.81181641 -326.77455078 265.81181641 -325.28125 264.5 C-321.66148264 261.43055114 -317.9961855 258.42401061 -314.3046875 255.44140625 C-308.83775655 250.94842789 -303.53402334 246.26519562 -298.19726562 241.61914062 C-293.50293604 237.543631 -288.77179384 233.51081778 -284.04785156 229.46972656 C-282.26242501 227.93978866 -280.4804198 226.40594824 -278.69921875 224.87109375 C-273.36528061 220.2788849 -268.02035912 215.71620668 -262.55078125 211.28515625 C-258.17570378 207.73520304 -253.99528933 204.01701804 -249.83203125 200.22265625 C-246.32278639 197.10332749 -242.66916002 194.17516492 -239.01953125 191.22265625 C-236.37930396 189.03764056 -233.83348405 186.78094234 -231.30078125 184.47265625 C-227.00086334 180.55374373 -222.54158578 176.88094756 -218.01953125 173.22265625 C-215.37930396 171.03764056 -212.83348405 168.78094234 -210.30078125 166.47265625 C-206.98088639 163.44983204 -203.60314013 160.54753464 -200.11328125 157.72265625 C-193.67366132 152.5074711 -187.44622722 147.05933873 -181.19726562 141.61914062 C-178.22222936 139.03628216 -175.23134065 136.47208711 -172.23828125 133.91015625 C-171.66489014 133.41926514 -171.09149902 132.92837402 -170.50073242 132.42260742 C-169.34547607 131.43380422 -168.19012149 130.44511576 -167.03466797 129.45654297 C-164.70625403 127.46385078 -162.37943836 125.46929763 -160.05273438 123.47460938 C-158.30356895 121.97504615 -156.55412854 120.47580416 -154.8046875 118.9765625 C-152.45736599 116.96466623 -150.11111708 114.95152867 -147.765625 112.9375 C-141.59418318 107.63989065 -135.40676584 102.36249626 -129.19287109 97.11474609 C-123.45909361 92.26868983 -117.76254972 87.37951844 -112.06689453 82.48876953 C-108.56583933 79.48330191 -105.0618978 76.4811981 -101.55761719 73.47949219 C-98.60026873 70.94580417 -95.64548446 68.40922975 -92.6953125 65.8671875 C-87.36242803 61.27659072 -82.0189218 56.71504227 -76.55078125 52.28515625 C-72.17570378 48.73520304 -67.99528933 45.01701804 -63.83203125 41.22265625 C-60.32278639 38.10332749 -56.66916002 35.17516492 -53.01953125 32.22265625 C-50.37930396 30.03764056 -47.83348405 27.78094234 -45.30078125 25.47265625 C-41.06717966 21.61907874 -36.69900585 17.97939535 -32.24609375 14.3828125 C-30.09276461 12.62073812 -27.96657151 10.84252688 -25.85546875 9.03125 C-25.27450439 8.53351074 -24.69354004 8.03577148 -24.0949707 7.52294922 C-22.96562274 6.55266211 -21.8390162 5.57917227 -20.71557617 4.60205078 C-14.48972435 -0.73827328 -8.04616845 -3.59277131 0 0 Z M-7.30078125 31.97265625 C-8.72291762 33.19163029 -10.14504565 34.41061406 -11.56713867 35.62963867 C-12.82237236 36.7054826 -14.07774696 37.78116214 -15.33325195 38.85668945 C-18.54572865 41.60904267 -21.75624128 44.36358967 -24.9609375 47.125 C-30.17387272 51.6128196 -35.39432925 56.07807682 -40.73828125 60.41015625 C-46.42626234 65.03059837 -51.94642976 69.83334847 -57.47265625 74.64453125 C-61.08812412 77.79207204 -64.72158682 80.91802155 -68.36328125 84.03515625 C-68.93667236 84.52604736 -69.51006348 85.01693848 -70.10083008 85.52270508 C-71.25608643 86.51150828 -72.41144101 87.50019674 -73.56689453 88.48876953 C-76.47972171 90.98161149 -79.39012186 93.47728391 -82.30078125 95.97265625 C-83.46743643 96.97266965 -84.63410309 97.97266966 -85.80078125 98.97265625 C-86.37828125 99.46765625 -86.95578125 99.96265625 -87.55078125 100.47265625 C-93.96744792 105.97265625 -100.38411458 111.47265625 -106.80078125 116.97265625 C-107.37852295 117.46789795 -107.95626465 117.96313965 -108.55151367 118.47338867 C-109.71560102 119.4711082 -110.87982581 120.46866739 -112.04418945 121.46606445 C-115.00148012 123.99964368 -117.95616494 126.53615762 -120.90625 129.078125 C-126.23913447 133.66872178 -131.5826407 138.23027023 -137.05078125 142.66015625 C-141.42585872 146.21010946 -145.60627317 149.92829446 -149.76953125 153.72265625 C-153.27877611 156.84198501 -156.93240248 159.77014758 -160.58203125 162.72265625 C-163.22225854 164.90767194 -165.76807845 167.16437016 -168.30078125 169.47265625 C-172.60069916 173.39156877 -177.05997672 177.06436494 -181.58203125 180.72265625 C-184.22225854 182.90767194 -186.76807845 185.16437016 -189.30078125 187.47265625 C-193.60069916 191.39156877 -198.05997672 195.06436494 -202.58203125 198.72265625 C-205.22225854 200.90767194 -207.76807845 203.16437016 -210.30078125 205.47265625 C-214.60069916 209.39156877 -219.05997672 213.06436494 -223.58203125 216.72265625 C-226.22225854 218.90767194 -228.76807845 221.16437016 -231.30078125 223.47265625 C-235.60069916 227.39156877 -240.05997672 231.06436494 -244.58203125 234.72265625 C-247.22225854 236.90767194 -249.76807845 239.16437016 -252.30078125 241.47265625 C-255.62067611 244.49548046 -258.99842237 247.39777786 -262.48828125 250.22265625 C-266.96292524 253.84528763 -271.33469372 257.56743988 -275.67578125 261.34765625 C-281.35295176 266.29004116 -287.0634116 271.18837844 -292.8125 276.046875 C-293.31992949 276.49039216 -293.82735898 276.93390932 -294.35016513 277.3908664 C-296.30078125 278.97265625 -296.30078125 278.97265625 -299.21570134 280.94313991 C-305.63812796 285.48938184 -305.63812796 285.48938184 -309.40817404 292.15872216 C-309.81164262 295.90990951 -309.84424904 299.50098728 -309.74383545 303.2727356 C-309.74909369 304.70101169 -309.75963365 306.12927635 -309.77496338 307.55747986 C-309.80175522 311.46829944 -309.75391627 315.37514219 -309.693654 319.28545681 C-309.64108492 323.57169126 -309.65880007 327.85775539 -309.66746902 332.14422417 C-309.67383796 340.4573287 -309.61854361 348.76887232 -309.54145308 357.08157622 C-309.45492213 366.70093966 -309.44550958 376.31937071 -309.43603516 385.93920898 C-309.3730761 411.32560481 -309.20554193 436.71165409 -309.05078125 462.09765625 C-308.80328125 518.81640625 -308.55578125 575.53515625 -308.30078125 633.97265625 C-109.64078125 633.97265625 89.01921875 633.97265625 293.69921875 633.97265625 C293.94671875 577.27453125 294.19421875 520.57640625 294.44921875 462.16015625 C294.5584668 444.24887451 294.66771484 426.33759277 294.78027344 407.88354492 C294.82040336 391.84642651 294.82040336 391.84642651 294.84454346 375.8092804 C294.85573668 368.65844937 294.89976163 361.50874268 294.96612549 354.35823059 C295.04256754 346.10961398 295.07723806 337.86207603 295.06055816 329.61310263 C295.05333443 325.39372131 295.06469822 321.17674972 295.12980032 316.95781171 C295.18838978 313.13764106 295.19100155 309.3215722 295.15003204 305.50120926 C295.14257489 303.47502935 295.19414485 301.44889369 295.24818802 299.42342091 C295.11983535 292.84714588 294.26596025 288.85932469 289.5649838 284.27866923 C287.03096948 282.0412581 284.40211419 280.0057101 281.69921875 277.97265625 C279.92423084 276.51938246 278.15265214 275.06191923 276.38671875 273.59765625 C275.04287109 272.51484375 275.04287109 272.51484375 273.671875 271.41015625 C270.16603402 268.53545878 266.74251677 265.57542958 263.32421875 262.59765625 C258.62194086 258.50244932 253.90408507 254.42947122 249.13671875 250.41015625 C244.63939513 246.61851136 240.16160076 242.80537323 235.69921875 238.97265625 C231.21428297 235.12126638 226.71622094 231.28638791 222.19921875 227.47265625 C215.92745673 222.17618418 209.69330716 216.83661127 203.46533203 211.48876953 C199.96427683 208.48330191 196.4603353 205.4811981 192.95605469 202.47949219 C189.99870623 199.94580417 187.04392196 197.40922975 184.09375 194.8671875 C178.78277584 190.29555172 173.46241472 185.75311933 168.01171875 181.34765625 C163.32115069 177.54300807 158.87831099 173.51656733 154.43359375 169.4296875 C150.9559419 166.30476891 147.33897965 163.37905268 143.703125 160.44140625 C138.23619405 155.94842789 132.93246084 151.26519562 127.59570312 146.61914062 C124.62066686 144.03628216 121.62977815 141.47208711 118.63671875 138.91015625 C118.06332764 138.41926514 117.48993652 137.92837402 116.89916992 137.42260742 C115.74391357 136.43380422 114.58855899 135.44511576 113.43310547 134.45654297 C110.52027829 131.96370101 107.60987814 129.46802859 104.69921875 126.97265625 C103.53256357 125.97264285 102.36589691 124.97264284 101.19921875 123.97265625 C66.19921875 93.97265625 66.19921875 93.97265625 64.44897461 92.47241211 C63.28316771 91.47317229 62.11731489 90.47398602 60.95141602 89.47485352 C58.02121477 86.96366164 55.09183584 84.45152232 52.1640625 81.9375 C46.52500219 77.0968907 40.8770845 72.26771992 35.19921875 67.47265625 C30.70517896 63.67735572 26.22670821 59.86459536 21.76171875 56.03515625 C20.89619385 55.29338135 20.89619385 55.29338135 20.01318359 54.53662109 C16.99760927 51.95052495 13.98762328 49.35821479 10.984375 46.7578125 C5.03087573 41.61239502 -0.90880072 36.57488223 -7.30078125 31.97265625 Z"/>
<path transform="translate(891.73046875,400.8671875)" fill="#FE7B00" d="M0 0 C12.33754871 6.15815684 19.35989257 31.22924252 23.4921875 43.484375 C26.62939747 53.24722311 29.16139218 63.09933858 31.26953125 73.1328125 C31.48125977 74.1218457 31.69298828 75.11087891 31.91113281 76.12988281 C35.10722043 91.74563263 35.6356271 107.12462819 35.64453125 123.0078125 C35.64752228 124.44998642 35.64752228 124.44998642 35.65057373 125.92129517 C35.64992532 128.67701181 35.63187423 131.43192012 35.60546875 134.1875 C35.60184326 135.43111046 35.60184326 135.43111046 35.59814453 136.69984436 C35.50928435 142.17467813 34.95908228 146.11625159 31.33203125 150.4453125 C25.66189162 153.56967515 19.81068232 152.81802592 13.68139648 151.1652832 C10.18698776 150.02708681 6.73766549 148.76752965 3.29122925 147.49240112 C-0.87048156 145.95981509 -5.0574874 144.50014241 -9.24609375 143.04296875 C-10.60529686 142.56991051 -10.60529686 142.56991051 -11.99195862 142.08729553 C-23.65277875 138.07084048 -35.46604478 134.56054049 -47.29296875 131.0703125 C-48.43006287 130.73398804 -49.56715698 130.39766357 -50.7387085 130.05114746 C-69.01925024 124.65988091 -87.38496022 119.6210034 -105.85961914 114.93725586 C-107.19200119 114.59370308 -107.19200119 114.59370308 -108.55130005 114.24320984 C-110.18366805 113.82250399 -111.81811112 113.40972019 -113.45504761 113.00715637 C-119.27247405 111.49775331 -124.70004233 109.55622468 -128.66796875 104.8203125 C-130.09626866 101.20755391 -130.32985691 98.9955362 -129.73046875 95.1328125 C-126.26386992 89.86074117 -121.42085664 86.08108523 -116.35546875 82.4453125 C-114.92818306 81.3987134 -113.50110547 80.35183047 -112.07421875 79.3046875 C-111.35105469 78.77810547 -110.62789062 78.25152344 -109.8828125 77.70898438 C-107.17171643 75.72363544 -104.49095108 73.69990177 -101.81079102 71.6730957 C-94.82777902 66.39551154 -87.76247576 61.23975291 -80.6550293 56.13134766 C-75.12675397 52.1542987 -69.64110301 48.12281535 -64.16796875 44.0703125 C-57.52922098 39.16015198 -50.8336309 34.34340206 -44.07397461 29.60131836 C-38.927527 25.98844145 -33.82273241 22.3215799 -28.73046875 18.6328125 C-27.23698838 17.55727887 -25.74349881 16.48175803 -24.25 15.40625 C-21.14429894 13.16636027 -18.06344306 10.89622469 -14.9921875 8.609375 C-13.46765901 7.49189946 -11.94292677 6.37470182 -10.41796875 5.2578125 C-9.71865234 4.72736328 -9.01933594 4.19691406 -8.29882812 3.65039062 C-3.5039071 0.17043325 -3.5039071 0.17043325 0 0 Z"/>
<path transform="translate(742.75,535.625)" fill="#FD7B00" d="M0 0 C4.37897888 0.50526679 5.39031244 2.07322317 8.25 5.375 C9.65343914 7.78869959 10.90670598 10.12474066 12.10546875 12.6328125 C12.44861115 13.32890625 12.79175354 14.025 13.14529419 14.7421875 C14.25167641 16.99051167 15.34438438 19.2452008 16.4375 21.5 C17.5841231 23.83602723 18.7345309 26.17016268 19.88536072 28.50411987 C20.641209 30.03721955 21.3959885 31.57084664 22.14967346 33.10501099 C24.86229702 38.62005321 27.66161035 44.08134556 30.5625 49.5 C34.24539657 56.40025627 37.7692054 63.37066805 41.25 70.375 C47.86470872 83.6691447 54.77425308 96.78501784 61.815979 109.85731506 C64.71360898 115.23897242 67.59404969 120.62963181 70.46533203 126.02539062 C71.60505037 128.1645063 72.74884957 130.30145602 73.89794922 132.43554688 C75.34674416 135.13505033 76.77080841 137.84604596 78.1875 140.5625 C78.60644531 141.33263428 79.02539062 142.10276855 79.45703125 142.89624023 C82.10058215 148.05173421 83.13703825 152.57872575 82.25 158.375 C77.70615939 167.28791811 65.26915714 169.77441928 56.34179688 172.7277832 C49.33613748 174.97787466 42.28071712 176.97333494 35.125 178.6875 C34.13246216 178.92654053 34.13246216 178.92654053 33.11987305 179.17041016 C25.06250147 181.00960382 17.03555118 181.53172072 8.7890625 181.54296875 C7.9178476 181.54629715 7.04663269 181.54962555 6.14901733 181.55305481 C4.31875124 181.55808296 2.48847612 181.56046442 0.65820312 181.56030273 C-2.11083362 181.56248882 -4.87947098 181.58068761 -7.6484375 181.59960938 C-31.3170004 181.67765136 -31.3170004 181.67765136 -37.375 176.875 C-40.71550342 173.35868061 -40.96807398 171.47876138 -40.89950562 166.65237427 C-40.64097663 162.7142796 -39.75919235 158.95658857 -38.86328125 155.12109375 C-38.65398483 154.19176529 -38.44468842 153.26243683 -38.22904968 152.3049469 C-37.51452208 149.13901214 -36.78830044 145.9758679 -36.0625 142.8125 C-34.97164047 137.99951457 -33.88671081 133.18519354 -32.80078125 128.37109375 C-32.49410701 127.01556563 -32.18739418 125.66004624 -31.88064575 124.30453491 C-29.25000543 112.66573657 -26.68001219 101.01387792 -24.12056541 89.35923958 C-23.41716408 86.15649239 -22.71311434 82.95388841 -22.00886536 79.75132751 C-19.17305253 66.85565473 -19.17305253 66.85565473 -16.34414673 53.95846558 C-15.21774214 48.81684797 -14.08700205 43.67620057 -12.95334816 38.53617668 C-12.53282669 36.62587657 -12.11383856 34.71523814 -11.69653893 32.80423164 C-4.66997475 0.63681474 -4.66997475 0.63681474 0 0 Z"/>
<path transform="translate(716.375,527.3125)" fill="#FE7C00" d="M0 0 C2.625 0.6875 2.625 0.6875 4.32691956 2.39279175 C6.01737791 5.38113408 5.69210355 6.75392906 5.01928711 10.09033203 C4.80811249 11.15608459 4.59693787 12.22183716 4.37936401 13.31988525 C3.11047596 18.98442655 1.75428675 24.61813337 0.31640625 30.2421875 C-0.17788096 32.20207213 -0.67216301 34.16195806 -1.16622448 36.1218996 C-1.68749077 38.18648161 -2.21096774 40.25049179 -2.73504639 42.31436157 C-4.56677367 49.53053042 -6.37828177 56.75179567 -8.19140625 63.97265625 C-8.37259506 64.69368971 -8.55378387 65.41472317 -8.74046326 66.15760612 C-11.98859842 79.0864674 -15.15967999 92.03242312 -18.25 105 C-18.5742244 106.35745834 -18.5742244 106.35745834 -18.90499878 107.74234009 C-21.37950373 118.11279604 -23.79534868 128.49550665 -26.1640625 138.890625 C-26.62376473 140.89935464 -27.08356158 142.90806263 -27.54345703 144.91674805 C-28.4117848 148.71019066 -29.26799355 152.50607993 -30.11669922 156.30395508 C-30.50449042 158.00611158 -30.89265315 159.7081835 -31.28125 161.41015625 C-31.44952301 162.17865906 -31.61779602 162.94716187 -31.79116821 163.73895264 C-33.00526558 168.99428417 -34.41687823 173.00910991 -38.5625 176.5625 C-43.05837987 178.36085195 -47.23612189 177.49647133 -51.6574707 175.82421875 C-54.1236477 174.69928691 -56.5315834 173.4986047 -58.9375 172.25 C-59.80938965 171.80479004 -60.6812793 171.35958008 -61.57958984 170.90087891 C-73.38789375 164.74914395 -84.24895094 157.33504275 -94.375 148.6875 C-95.12394531 148.04941406 -95.87289062 147.41132812 -96.64453125 146.75390625 C-131.27243716 116.37552776 -131.27243716 116.37552776 -134.125 101.875 C-133.91648052 98.13555058 -132.7141461 96.52255931 -130 94 C-128.15650009 92.52231961 -126.27531801 91.09135993 -124.375 89.6875 C-123.44107422 88.99744873 -123.44107422 88.99744873 -122.48828125 88.29345703 C-118.76737348 85.55681796 -115.02025075 82.85888356 -111.2578125 80.1796875 C-106.42416925 76.7348221 -101.64554061 73.21901566 -96.875 69.6875 C-90.73525719 65.14942923 -84.57144577 60.64782875 -78.375 56.1875 C-69.79128409 50.00666137 -61.27298492 43.73964141 -52.76611328 37.45361328 C-49.5944612 35.11098196 -46.42004555 32.77211359 -43.24536133 30.43359375 C-41.67078402 29.27370325 -40.09640105 28.11354888 -38.5222168 26.953125 C-34.44203062 23.94547145 -30.35952764 20.94103504 -26.2734375 17.94140625 C-25.43232422 17.32330078 -24.59121094 16.70519531 -23.72460938 16.06835938 C-22.13551019 14.90067876 -20.54572479 13.7339311 -18.95507812 12.56835938 C-14.33235896 9.16966117 -9.81279949 5.67625341 -5.36132812 2.05517578 C-3.375 0.6875 -3.375 0.6875 0 0 Z"/>
<path transform="translate(768,528)" fill="#FD7C00" d="M0 0 C7.02825637 0.30695829 13.28138862 2.0968089 19.9453125 4.24609375 C20.97990601 4.57251862 22.01449951 4.89894348 23.08044434 5.23526001 C26.43121587 6.29470526 29.77807271 7.36597897 33.125 8.4375 C35.45860222 9.17769398 37.79242547 9.91719149 40.12646484 10.65600586 C53.12408698 14.77670095 66.10531133 18.94828004 79.06469727 23.18774414 C87.19889281 25.8295488 95.36949369 28.33437584 103.55859375 30.80078125 C104.6676709 31.13588211 105.77674805 31.47098297 106.91943359 31.8162384 C112.48585792 33.49793828 118.05486634 35.16982132 123.62939453 36.82446289 C125.68144711 37.4424329 127.73337346 38.0608223 129.78515625 38.6796875 C130.72749619 38.95537064 131.66983612 39.23105377 132.64073181 39.51509094 C139.100174 41.47937547 143.76656488 43.59476218 148.4375 48.625 C151.16086777 54.50747438 149.88795251 59.20833112 147.96875 65.2421875 C141.93211187 81.28139463 133.76116526 96.80724284 123.26367188 110.3671875 C121.96548822 112.04459327 120.69328468 113.7397379 119.421875 115.4375 C98.86046773 142.56976613 98.86046773 142.56976613 86 149 C80.95811561 149.42015703 77.82384494 149.58403213 73.53076172 146.51049805 C70.21808034 143.24166875 68.4490755 138.88816684 66.4375 134.75 C65.38212786 132.65398031 64.32477405 130.55895745 63.265625 128.46484375 C62.45641602 126.85198486 62.45641602 126.85198486 61.63085938 125.20654297 C59.07907014 120.18929748 56.38648191 115.25167823 53.6875 110.3125 C49.26732726 102.18955082 44.87397277 94.05299835 40.51156616 85.89886475 C39.56192251 84.12392063 38.61173618 82.3492681 37.66137695 80.57470703 C35.16687293 75.91661197 32.67248953 71.25845676 30.18212891 66.59814453 C23.94744392 54.93429382 17.6578505 43.31252367 11.125 31.8125 C9.56059573 29.05242372 7.99670024 26.29206146 6.43359375 23.53125 C5.50540595 21.89237889 4.57580931 20.25430456 3.64453125 18.6171875 C2.45849941 16.52247281 1.28899594 14.41951658 0.125 12.3125 C-0.51179687 11.17425781 -1.14859375 10.03601563 -1.8046875 8.86328125 C-3 6 -3 6 -2.8203125 3.73046875 C-2 2 -2 2 0 0 Z"/>
<path transform="translate(722,742)" fill="#222121" d="M0 0 C11.22 0 22.44 0 34 0 C34 0.33 34 0.66 34 1 C26.74 1.33 19.48 1.66 12 2 C12 2.33 12 2.66 12 3 C7.71 3 3.42 3 -1 3 C-0.67 2.01 -0.34 1.02 0 0 Z"/>
<path transform="translate(526,375)" fill="#0F100F" d="M0 0 C0.66 0.33 1.32 0.66 2 1 C-0.19129941 5.69564159 -2.1955463 7.16973192 -7 9 C-8.33812912 9.65698758 -9.67236406 10.32205824 -11 11 C-7.6189962 6.86378916 -4.33409466 3.18683431 0 0 Z"/>
<path transform="translate(690,737)" fill="#212120" d="M0 0 C1.96048352 0.2548029 3.91840673 0.52936944 5.875 0.8125 C7.51082031 1.03873047 7.51082031 1.03873047 9.1796875 1.26953125 C12 2 12 2 14 5 C12.41590006 4.88512252 10.83271037 4.75765492 9.25 4.625 C8.36828125 4.55539062 7.4865625 4.48578125 6.578125 4.4140625 C4.00933618 4.00149945 2.24158985 3.28839043 0 2 C0 1.34 0 0.68 0 0 Z"/>
<path transform="translate(826,688)" fill="#090A1F" d="M0 0 C0.33 0 0.66 0 1 0 C0.72694671 6.55327899 -1.81211141 10.06930548 -6 15 C-6.99 14.34 -7.98 13.68 -9 13 C-8.071875 12.34 -7.14375 11.68 -6.1875 11 C-2.39944801 7.89254364 -1.40866862 4.61730269 0 0 Z"/>
<path transform="translate(1042,404)" fill="#0D0D0D" d="M0 0 C3.23861303 1.44424635 5.61969163 3.25772247 8.25 5.625 C8.95640625 6.25664062 9.6628125 6.88828125 10.390625 7.5390625 C10.92171875 8.02117187 11.4528125 8.50328125 12 9 C8.0557333 9 7.17603973 7.68625863 4.3125 5.0625 C3.50425781 4.33160156 2.69601562 3.60070312 1.86328125 2.84765625 C1.24839844 2.23792969 0.63351562 1.62820313 0 1 C0 0.67 0 0.34 0 0 Z"/>
<path transform="translate(951,497)" fill="#232221" d="M0 0 C0.99 0.33 1.98 0.66 3 1 C3.1953125 7.0546875 3.1953125 7.0546875 3 9 C2.34 9.66 1.68 10.32 1 11 C-0.20272819 8.59454362 -0.10071472 7.05003047 -0.0625 4.375 C-0.05347656 3.55773437 -0.04445313 2.74046875 -0.03515625 1.8984375 C-0.02355469 1.27195312 -0.01195312 0.64546875 0 0 Z"/>
<path transform="translate(952,538)" fill="#292826" d="M0 0 C0.66 0.33 1.32 0.66 2 1 C2 3.64 2 6.28 2 9 C1.01 9.33 0.02 9.66 -1 10 C-1.02689216 8.52093108 -1.04634621 7.04172517 -1.0625 5.5625 C-1.07410156 4.73878906 -1.08570313 3.91507813 -1.09765625 3.06640625 C-1 1 -1 1 0 0 Z"/>
<path transform="translate(951,486)" fill="#21201F" d="M0 0 C2 2 2 2 2.3125 4.5 C2.209375 5.325 2.10625 6.15 2 7 C1.01 7.66 0.02 8.32 -1 9 C-1.125 2.25 -1.125 2.25 0 0 Z"/>
</svg>